<?xml version="1.0" encoding="utf-8"?><svg viewBox="0 0 22 21" xmlns="http://www.w3.org/2000/svg" xmlns:xlink="http://www.w3.org/1999/xlink"><style>:root>svg{display:none}:root>svg:target{display:block}</style><svg fill="none" viewBox="0 0 9 16" id="Line" xmlns="http://www.w3.org/2000/svg"><path d="M1 1l7 7-7 7" stroke="#fff" stroke-width="1.8" stroke-linecap="round" stroke-linejoin="round"/></svg><svg fill="none" viewBox="0 0 8 14" id="arrow-next" xmlns="http://www.w3.org/2000/svg"><path d="M1 1l6 6-6 6"/></svg><svg fill="none" viewBox="0 0 8 14" id="arrow-prew" xmlns="http://www.w3.org/2000/svg"><path d="M7 13L1 7l6-6"/></svg><svg fill="none" viewBox="0 0 18 14" id="check" xmlns="http://www.w3.org/2000/svg"><path d="M1 6.333L6.818 13 17 1" stroke="#659DBD" stroke-linecap="round"/></svg><svg fill="none" viewBox="0 0 12 10" id="check-bg" xmlns="http://www.w3.org/2000/svg"><path d="M1 4.556L4.636 9 11 1" stroke="#fff" stroke-linecap="round"/></svg><svg fill="none" viewBox="0 0 16 16" id="cross" xmlns="http://www.w3.org/2000/svg"><path d="M15 1L1 15M1 1l14 14"/></svg><svg fill="none" viewBox="0 0 10 10" id="cross-bg" xmlns="http://www.w3.org/2000/svg"><path d="M9 9L1 1m8 0L1 9" stroke="#fff" stroke-linecap="round"/></svg><svg viewBox="0 0 22 21" id="like" xmlns="http://www.w3.org/2000/svg"><path d="M1 7.265C1 13.143 7 18.04 11 20c4-1.96 10-6.857 10-12.735 0-7.837-10-8.318-10-1.46C11-1.054 1-.573 1 7.264z" stroke="#E7717D"/></svg></svg>